<svg width="38" height="38" viewBox="0 0 38 38" fill="none" xmlns="http://www.w3.org/2000/svg">
<path d="M33 1V9" stroke="black" stroke-width="2" stroke-linecap="round"/>
<path d="M37 5L29 5" stroke="black" stroke-width="2" stroke-linecap="round"/>
<path d="M21.5 6C22.0523 6 22.5 5.55228 22.5 5C22.5 4.44772 22.0523 4 21.5 4V6ZM34 16.5C34 15.9477 33.5523 15.5 33 15.5C32.4477 15.5 32 15.9477 32 16.5H34ZM25.2929 30.2071C25.6834 30.5976 26.3166 30.5976 26.7071 30.2071C27.0976 29.8166 27.0976 29.1834 26.7071 28.7929L25.2929 30.2071ZM29 36H5V38H29V36ZM5 6H21.5V4H5V6ZM32 16.5V33H34V16.5H32ZM2 33V28.5H0V33H2ZM2 28.5V9H0V28.5H2ZM1.70711 29.2071L10.8787 20.0355L9.46446 18.6213L0.292893 27.7929L1.70711 29.2071ZM15.1201 20.0343C15.1255 20.0397 15.1309 20.0451 15.1363 20.0506C15.1418 20.056 15.1472 20.0614 15.1526 20.0668C15.1581 20.0723 15.1635 20.0777 15.1689 20.0831C15.1744 20.0886 15.1798 20.094 15.1853 20.0995C15.1907 20.1049 15.1962 20.1104 15.2016 20.1159C15.2071 20.1213 15.2126 20.1268 15.2181 20.1323C15.2235 20.1377 15.229 20.1432 15.2345 20.1487C15.24 20.1542 15.2455 20.1597 15.251 20.1652C15.2565 20.1707 15.262 20.1762 15.2675 20.1817C15.273 20.1872 15.2785 20.1927 15.284 20.1982C15.2895 20.2038 15.2951 20.2093 15.3006 20.2148C15.3061 20.2203 15.3117 20.2259 15.3172 20.2314C15.3227 20.237 15.3283 20.2425 15.3338 20.2481C15.3394 20.2536 15.345 20.2592 15.3505 20.2647C15.3561 20.2703 15.3616 20.2759 15.3672 20.2814C15.3728 20.287 15.3784 20.2926 15.384 20.2982C15.3895 20.3038 15.3951 20.3093 15.4007 20.3149C15.4063 20.3205 15.4119 20.3261 15.4175 20.3317C15.4231 20.3373 15.4287 20.343 15.4344 20.3486C15.44 20.3542 15.4456 20.3598 15.4512 20.3654C15.4568 20.3711 15.4625 20.3767 15.4681 20.3823C15.4738 20.388 15.4794 20.3936 15.485 20.3993C15.4907 20.4049 15.4963 20.4106 15.502 20.4162C15.5077 20.4219 15.5133 20.4275 15.519 20.4332C15.5247 20.4389 15.5303 20.4445 15.536 20.4502C15.5417 20.4559 15.5474 20.4616 15.5531 20.4673C15.5587 20.473 15.5644 20.4787 15.5701 20.4844C15.5758 20.4901 15.5815 20.4958 15.5873 20.5015C15.593 20.5072 15.5987 20.5129 15.6044 20.5186C15.6101 20.5243 15.6158 20.5301 15.6216 20.5358C15.6273 20.5415 15.633 20.5473 15.6388 20.553C15.6445 20.5587 15.6503 20.5645 15.656 20.5702C15.6618 20.576 15.6675 20.5817 15.6733 20.5875C15.679 20.5933 15.6848 20.599 15.6906 20.6048C15.6963 20.6106 15.7021 20.6163 15.7079 20.6221C15.7137 20.6279 15.7195 20.6337 15.7253 20.6395C15.731 20.6453 15.7368 20.6511 15.7426 20.6569C15.7484 20.6627 15.7542 20.6685 15.7601 20.6743C15.7659 20.6801 15.7717 20.6859 15.7775 20.6917C15.7833 20.6975 15.7891 20.7034 15.795 20.7092C15.8008 20.715 15.8066 20.7209 15.8125 20.7267C15.8183 20.7325 15.8242 20.7384 15.83 20.7442C15.8359 20.7501 15.8417 20.7559 15.8476 20.7618C15.8534 20.7676 15.8593 20.7735 15.8652 20.7794C15.871 20.7852 15.8769 20.7911 15.8828 20.797C15.8887 20.8029 15.8945 20.8088 15.9004 20.8146C15.9063 20.8205 15.9122 20.8264 15.9181 20.8323C15.924 20.8382 15.9299 20.8441 15.9358 20.85C15.9417 20.8559 15.9476 20.8618 15.9535 20.8678C15.9595 20.8737 15.9654 20.8796 15.9713 20.8855C15.9772 20.8914 15.9832 20.8974 15.9891 20.9033C15.995 20.9092 16.001 20.9152 16.0069 20.9211C16.0129 20.9271 16.0188 20.933 16.0248 20.939C16.0307 20.9449 16.0367 20.9509 16.0426 20.9568C16.0486 20.9628 16.0546 20.9688 16.0605 20.9748C16.0665 20.9807 16.0725 20.9867 16.0785 20.9927C16.1425 21.0567 16.0863 21.0005 16.1505 21.0647C16.1665 21.0807 16.1705 21.0847 16.1866 21.1008C16.1926 21.1069 16.1987 21.1129 16.2047 21.1189C16.2108 21.125 16.2168 21.131 16.2229 21.1371C16.2289 21.1431 16.235 21.1492 16.241 21.1553C16.2471 21.1613 16.2532 21.1674 16.2592 21.1735C16.2653 21.1795 16.2714 21.1856 16.2775 21.1917C16.2836 21.1978 16.2896 21.2038 16.2957 21.2099C16.3282 21.2424 16.3364 21.2506 16.369 21.2832C16.3853 21.2995 16.3894 21.3036 16.4058 21.32C16.4119 21.3261 16.4181 21.3323 16.4242 21.3384C16.4304 21.3446 16.4365 21.3507 16.4427 21.3569C16.4591 21.3733 16.4632 21.3774 16.4796 21.3939C16.4858 21.4 16.492 21.4062 16.4982 21.4124C16.5044 21.4186 16.5105 21.4248 16.5167 21.4309C16.5829 21.4971 16.5994 21.5136 16.6661 21.5803C16.6662 21.5804 16.7411 21.6553 16.7413 21.6555C16.7476 21.6618 16.7539 21.6681 16.7602 21.6744C16.7665 21.6807 16.7728 21.687 16.7791 21.6933C16.7854 21.6996 16.7917 21.7059 16.798 21.7122C16.8043 21.7185 16.8106 21.7248 16.8169 21.7311C16.8232 21.7374 16.8296 21.7438 16.8359 21.7501C16.8422 21.7564 16.8485 21.7627 16.8549 21.7691C16.8612 21.7754 16.8675 21.7817 16.8739 21.7881C16.8802 21.7944 16.8865 21.8008 16.8929 21.8071C16.8992 21.8135 16.9056 21.8198 16.9119 21.8262C16.9183 21.8325 16.9247 21.8389 16.931 21.8452C16.9374 21.8516 16.9437 21.858 16.9501 21.8643C16.9565 21.8707 16.9629 21.8771 16.9692 21.8834C16.9756 21.8898 16.982 21.8962 16.9884 21.9026C16.9948 21.909 17.0011 21.9153 17.0075 21.9217C17.0139 21.9281 17.0203 21.9345 17.0267 21.9409C17.0331 21.9473 17.0395 21.9537 17.0459 21.9601C17.0523 21.9665 17.0587 21.9729 17.0651 21.9794C17.0716 21.9858 17.078 21.9922 17.0844 21.9986C17.0908 22.005 17.0972 22.0114 17.1037 22.0179C17.1101 22.0243 17.1165 22.0307 17.1229 22.0372C17.1294 22.0436 17.1358 22.05 17.1423 22.0565C17.1487 22.0629 17.1551 22.0694 17.1616 22.0758C17.168 22.0822 17.1745 22.0887 17.1809 22.0951C17.1874 22.1016 17.1938 22.1081 17.2003 22.1145C17.2068 22.121 17.2132 22.1274 17.2197 22.1339C17.2262 22.1404 17.2326 22.1469 17.2391 22.1533C17.2456 22.1598 17.2521 22.1663 17.2586 22.1728C17.265 22.1792 17.2715 22.1857 17.278 22.1922C17.2845 22.1987 17.291 22.2052 17.2975 22.2117C17.304 22.2182 17.3105 22.2247 17.317 22.2312C17.3235 22.2377 17.33 22.2442 17.3365 22.2507C17.343 22.2572 17.3495 22.2637 17.356 22.2702C17.3625 22.2767 17.3691 22.2833 17.3756 22.2898C17.3821 22.2963 17.3886 22.3028 17.3951 22.3094C17.4017 22.3159 17.4082 22.3224 17.4147 22.329C17.4213 22.3355 17.4278 22.342 17.4343 22.3486C17.4409 22.3551 17.4474 22.3616 17.454 22.3682C17.4605 22.3747 17.4671 22.3813 17.4736 22.3878C17.4802 22.3944 17.4867 22.401 17.4933 22.4075C17.4999 22.4141 17.5064 22.4206 17.513 22.4272C17.5196 22.4338 17.5261 22.4403 17.5327 22.4469C17.5393 22.4535 17.5458 22.4601 17.5524 22.4666C17.559 22.4732 17.5656 22.4798 17.5722 22.4864C17.5787 22.493 17.5853 22.4995 17.5919 22.5061C17.5985 22.5127 17.6051 22.5193 17.6117 22.5259C17.6183 22.5325 17.6249 22.5391 17.6315 22.5457C17.6381 22.5523 17.6447 22.5589 17.6513 22.5655C17.6579 22.5721 17.6645 22.5787 17.6711 22.5854C17.6778 22.592 17.6844 22.5986 17.691 22.6052C17.6976 22.6118 17.7042 22.6185 17.7109 22.6251C17.7175 22.6317 17.7241 22.6383 17.7308 22.645C17.7374 22.6516 17.744 22.6582 17.7507 22.6649C17.7573 22.6715 17.7639 22.6782 17.7706 22.6848C17.7772 22.6914 17.7839 22.6981 17.7905 22.7047C17.7972 22.7114 17.8038 22.718 17.8105 22.7247C17.8171 22.7313 17.8238 22.738 17.8304 22.7447C17.8371 22.7513 17.8438 22.758 17.8504 22.7647C17.8571 22.7713 17.8638 22.778 17.8704 22.7847C17.8771 22.7913 17.8838 22.798 17.8905 22.8047C17.8971 22.8114 17.9038 22.818 17.9105 22.8247C17.9172 22.8314 17.9239 22.8381 17.9306 22.8448C17.9372 22.8515 17.9439 22.8582 17.9506 22.8648C17.9573 22.8715 17.964 22.8782 17.9707 22.8849C17.9774 22.8916 17.9841 22.8983 17.9908 22.905C17.9975 22.9117 18.0042 22.9184 18.0109 22.9252C18.0177 22.9319 18.0244 22.9386 18.0311 22.9453C18.0378 22.952 18.0445 22.9587 18.0512 22.9654C18.058 22.9722 18.0647 22.9789 18.0714 22.9856C18.0781 22.9923 18.0849 22.9991 18.0916 23.0058C18.0983 23.0125 18.105 23.0193 18.1118 23.026C18.1185 23.0327 18.1253 23.0395 18.132 23.0462C18.1387 23.0529 18.1455 23.0597 18.1522 23.0664C18.159 23.0732 18.1657 23.0799 18.1725 23.0867C18.1792 23.0934 18.186 23.1002 18.1927 23.1069C18.1995 23.1137 18.2062 23.1205 18.213 23.1272C18.2198 23.134 18.2265 23.1407 18.2333 23.1475C18.2401 23.1543 18.2468 23.161 18.2536 23.1678C18.2604 23.1746 18.2671 23.1813 18.2739 23.1881C18.2807 23.1949 18.2875 23.2017 18.2942 23.2085C18.301 23.2152 18.3078 23.222 18.3146 23.2288C18.3214 23.2356 18.3282 23.2424 18.3349 23.2492C18.3417 23.2559 18.3485 23.2627 18.3553 23.2695C18.3621 23.2763 18.3689 23.2831 18.3757 23.2899C18.3825 23.2967 18.3893 23.3035 18.3961 23.3103C18.4029 23.3171 18.4097 23.3239 18.4165 23.3307C18.4233 23.3375 18.4301 23.3443 18.4369 23.3512C18.4438 23.358 18.4506 23.3648 18.4574 23.3716C18.4642 23.3784 18.471 23.3852 18.4778 23.3921C18.4847 23.3989 18.4915 23.4057 18.4983 23.4125C18.5051 23.4193 18.512 23.4262 18.5188 23.433C18.5256 23.4398 18.5324 23.4467 18.5393 23.4535C18.5461 23.4603 18.553 23.4672 18.5598 23.474C18.5666 23.4808 18.5735 23.4877 18.5803 23.4945C18.5872 23.5014 18.594 23.5082 18.6008 23.5151C18.6077 23.5219 18.6145 23.5287 18.6214 23.5356C18.6282 23.5424 18.6351 23.5493 18.6419 23.5562C18.6488 23.563 18.6557 23.5699 18.6625 23.5767C18.6694 23.5836 18.6762 23.5904 18.6831 23.5973C18.69 23.6042 18.6968 23.611 18.7037 23.6179C18.7106 23.6248 18.7174 23.6316 18.7243 23.6385C18.7312 23.6454 18.738 23.6522 18.7449 23.6591C18.7518 23.666 18.7587 23.6729 18.7655 23.6797C18.7724 23.6866 18.7793 23.6935 18.7862 23.7004C18.7931 23.7073 18.7999 23.7142 18.8068 23.721C18.8137 23.7279 18.8206 23.7348 18.8275 23.7417C18.8344 23.7486 18.8413 23.7555 18.8482 23.7624C18.8551 23.7693 18.862 23.7762 18.8688 23.7831C18.8757 23.79 18.8826 23.7969 18.8895 23.8038C18.8964 23.8107 18.9033 23.8176 18.9103 23.8245C18.9172 23.8314 18.9241 23.8383 18.931 23.8452C18.9379 23.8521 18.9448 23.859 18.9517 23.8659C18.9586 23.8728 18.9655 23.8797 18.9724 23.8867C18.9794 23.8936 18.9863 23.9005 18.9932 23.9074C19.0001 23.9143 19.007 23.9212 19.0139 23.9282C19.0209 23.9351 19.0278 23.942 19.0347 23.9489C19.0416 23.9559 19.0486 23.9628 19.0555 23.9697C19.0624 23.9766 19.0694 23.9836 19.0763 23.9905C19.0832 23.9974 19.0901 24.0044 19.0971 24.0113C19.104 24.0182 19.111 24.0252 19.1179 24.0321C19.1248 24.039 19.1318 24.046 19.1387 24.0529C19.1457 24.0599 19.1526 24.0668 19.1595 24.0738C19.1665 24.0807 19.1734 24.0876 19.1804 24.0946C19.1873 24.1015 19.1943 24.1085 19.2012 24.1154C19.2082 24.1224 19.2151 24.1293 19.2221 24.1363C19.229 24.1432 19.236 24.1502 19.2429 24.1572C19.2499 24.1641 19.2569 24.1711 19.2638 24.178C19.2708 24.185 19.2777 24.1919 19.2847 24.1989C19.2917 24.2059 19.2986 24.2128 19.3056 24.2198C19.3126 24.2268 19.3195 24.2337 19.3265 24.2407C19.3335 24.2477 19.3404 24.2546 19.3474 24.2616C19.3544 24.2686 19.3613 24.2756 19.3683 24.2825C19.3753 24.2895 19.3823 24.2965 19.3892 24.3035C19.3962 24.3104 19.4032 24.3174 19.4102 24.3244C19.4172 24.3314 19.4241 24.3383 19.4311 24.3453C19.4381 24.3523 19.4451 24.3593 19.4521 24.3663C19.459 24.3733 19.466 24.3802 19.473 24.3872C19.48 24.3942 19.487 24.4012 19.494 24.4082C19.501 24.4152 19.508 24.4222 19.515 24.4292C19.5219 24.4362 19.5289 24.4432 19.5359 24.4501C19.5429 24.4571 19.5499 24.4641 19.5569 24.4711C19.5639 24.4781 19.5709 24.4851 19.5779 24.4921C19.5849 24.4991 19.5919 24.5061 19.5989 24.5131C19.6059 24.5201 19.6129 24.5271 19.6199 24.5341C19.6269 24.5411 19.6339 24.5481 19.6409 24.5551C19.6479 24.5622 19.6549 24.5692 19.662 24.5762C19.669 24.5832 19.676 24.5902 19.683 24.5972C19.69 24.6042 19.697 24.6112 19.704 24.6182C19.711 24.6252 19.718 24.6323 19.7251 24.6393C19.7321 24.6463 19.7391 24.6533 19.7461 24.6603C19.7531 24.6673 19.7601 24.6743 19.7672 24.6814C19.7742 24.6884 19.7812 24.6954 19.7882 24.7024C19.7952 24.7094 19.8023 24.7165 19.8093 24.7235C19.8163 24.7305 19.8233 24.7375 19.8303 24.7446C19.8374 24.7516 19.8444 24.7586 19.8514 24.7656C19.8584 24.7727 19.8655 24.7797 19.8725 24.7867C19.8795 24.7937 19.8866 24.8008 19.8936 24.8078C19.9006 24.8148 19.9077 24.8219 19.9147 24.8289C19.9217 24.8359 19.9287 24.843 19.9358 24.85C19.9428 24.857 19.9498 24.8641 19.9569 24.8711C19.9639 24.8781 19.971 24.8852 19.978 24.8922C19.985 24.8992 19.9921 24.9063 19.9991 24.9133C20.0061 24.9204 20.0132 24.9274 20.0202 24.9344C20.0273 24.9415 20.0343 24.9485 20.0413 24.9556C20.0484 24.9626 20.0554 24.9696 20.0625 24.9767C20.0695 24.9837 20.0766 24.9908 20.0836 24.9978C20.0906 25.0049 20.0977 25.0119 20.1047 25.0189C20.1118 25.026 20.1188 25.033 20.1259 25.0401C20.1329 25.0471 20.14 25.0542 20.147 25.0612C20.1541 25.0683 20.1611 25.0753 20.1682 25.0824C20.1752 25.0894 20.1823 25.0965 20.1893 25.1035C20.1964 25.1106 20.2034 25.1176 20.2105 25.1247C20.2175 25.1317 20.2246 25.1388 20.2316 25.1458C20.2387 25.1529 20.2457 25.1599 20.2528 25.167C20.2598 25.1741 20.2669 25.1811 20.274 25.1882C20.281 25.1952 20.2881 25.2023 20.2951 25.2093C20.3022 25.2164 20.3092 25.2234 20.3163 25.2305C20.3233 25.2376 20.3304 25.2446 20.3375 25.2517C20.3445 25.2587 20.3516 25.2658 20.3586 25.2729C20.3657 25.2799 20.3728 25.287 20.3798 25.294C20.3869 25.3011 20.3939 25.3082 20.401 25.3152C20.4081 25.3223 20.4151 25.3293 20.4222 25.3364C20.4293 25.3435 20.4363 25.3505 20.4434 25.3576C20.4504 25.3647 20.4575 25.3717 20.4646 25.3788C20.4716 25.3858 20.4787 25.3929 20.4858 25.4C20.4928 25.407 20.4999 25.4141 20.507 25.4212C20.514 25.4282 20.5211 25.4353 20.5282 25.4424C20.5352 25.4494 20.5423 25.4565 20.5494 25.4636C20.5564 25.4706 20.5635 25.4777 20.5706 25.4848C20.5776 25.4918 20.5847 25.4989 20.5918 25.506C20.5988 25.513 20.6059 25.5201 20.613 25.5272C20.62 25.5342 20.6271 25.5413 20.6342 25.5484C20.6412 25.5554 20.6483 25.5625 20.6554 25.5696C20.6624 25.5766 20.6695 25.5837 20.6766 25.5908C20.6836 25.5979 20.6907 25.6049 20.6978 25.612C20.7048 25.6191 20.7119 25.6261 20.719 25.6332C20.7261 25.6403 20.7331 25.6473 20.7402 25.6544C20.7473 25.6615 20.7543 25.6686 20.7614 25.6756C20.7685 25.6827 20.7755 25.6898 20.7826 25.6968C20.7897 25.7039 20.7968 25.711 20.8038 25.718C20.8109 25.7251 20.818 25.7322 20.825 25.7393C20.8321 25.7463 20.8392 25.7534 20.8463 25.7605C20.8533 25.7675 20.8604 25.7746 20.8675 25.7817C20.8745 25.7888 20.8816 25.7958 20.8887 25.8029C20.8958 25.81 20.9028 25.817 20.9099 25.8241C20.917 25.8312 20.924 25.8382 20.9311 25.8453C20.9382 25.8524 20.9452 25.8595 20.9523 25.8665C20.9594 25.8736 20.9665 25.8807 20.9735 25.8877C20.9806 25.8948 20.9877 25.9019 20.9947 25.9089C21.0018 25.916 21.0089 25.9231 21.0159 25.9302C21.023 25.9372 21.0301 25.9443 21.0372 25.9514C21.0442 25.9584 21.0513 25.9655 21.0584 25.9726C21.0654 25.9796 21.0725 25.9867 21.0796 25.9938C21.0866 26.0009 21.0937 26.0079 21.1008 26.015C21.1078 26.0221 21.1149 26.0291 21.122 26.0362C21.129 26.0433 21.1361 26.0503 21.1432 26.0574C21.1503 26.0645 21.1573 26.0715 21.1644 26.0786C21.1715 26.0857 21.1785 26.0927 21.1856 26.0998C21.1927 26.1069 21.1997 26.1139 21.2068 26.121C21.2139 26.1281 21.2209 26.1351 21.228 26.1422C21.235 26.1493 21.2421 26.1563 21.2492 26.1634C21.2562 26.1705 21.2633 26.1775 21.2704 26.1846C21.2774 26.1916 21.2845 26.1987 21.2916 26.2058C21.2986 26.2128 21.3057 26.2199 21.3127 26.227C21.3198 26.234 21.3269 26.2411 21.3339 26.2481C21.341 26.2552 21.3481 26.2623 21.3551 26.2693C21.3622 26.2764 21.3692 26.2835 21.3763 26.2905C21.3834 26.2976 21.3904 26.3046 21.3975 26.3117C21.4045 26.3187 21.4116 26.3258 21.4186 26.3329C21.4257 26.3399 21.4328 26.347 21.4398 26.354C21.4469 26.3611 21.4539 26.3681 21.461 26.3752C21.468 26.3823 21.4751 26.3893 21.4822 26.3964C21.4892 26.4034 21.4963 26.4105 21.5033 26.4175C21.5104 26.4246 21.5174 26.4316 21.5245 26.4387C21.5315 26.4457 21.5386 26.4528 21.5456 26.4598C21.5527 26.4669 21.5597 26.4739 21.5668 26.481C21.5738 26.488 21.5809 26.4951 21.5879 26.5021C21.595 26.5092 21.602 26.5162 21.6091 26.5233C21.6161 26.5303 21.6232 26.5374 21.6302 26.5444C21.6373 26.5515 21.6443 26.5585 21.6514 26.5656C21.6584 26.5726 21.6654 26.5797 21.6725 26.5867C21.6795 26.5937 21.6866 26.6008 21.6936 26.6078C21.7007 26.6149 21.7077 26.6219 21.7147 26.6289C21.7218 26.636 21.7288 26.643 21.7359 26.6501C21.7429 26.6571 21.7499 26.6641 21.757 26.6712C21.764 26.6782 21.771 26.6853 21.7781 26.6923C21.7851 26.6993 21.7921 26.7064 21.7992 26.7134C21.8062 26.7204 21.8132 26.7275 21.8203 26.7345C21.8273 26.7415 21.8343 26.7486 21.8414 26.7556C21.8484 26.7626 21.8554 26.7696 21.8625 26.7767C21.8695 26.7837 21.8765 26.7907 21.8835 26.7978C21.8906 26.8048 21.8976 26.8118 21.9046 26.8188C21.9116 26.8259 21.9187 26.8329 21.9257 26.8399C21.9327 26.8469 21.9397 26.8539 21.9468 26.861C21.9538 26.868 21.9608 26.875 21.9678 26.882C21.9748 26.889 21.9819 26.8961 21.9889 26.9031C21.9959 26.9101 22.0029 26.9171 22.0099 26.9241C22.0169 26.9311 22.0239 26.9382 22.031 26.9452C22.038 26.9522 22.045 26.9592 22.052 26.9662C22.059 26.9732 22.066 26.9802 22.073 26.9872C22.08 26.9942 22.087 27.0013 22.094 27.0083C22.1011 27.0153 22.1081 27.0223 22.1151 27.0293C22.1221 27.0363 22.1291 27.0433 22.1361 27.0503C22.1431 27.0573 22.1501 27.0643 22.1571 27.0713C22.1641 27.0783 22.1711 27.0853 22.1781 27.0923C22.1851 27.0993 22.1921 27.1063 22.1991 27.1133C22.206 27.1203 22.213 27.1273 22.22 27.1342C22.227 27.1412 22.234 27.1482 22.241 27.1552C22.248 27.1622 22.255 27.1692 22.262 27.1762C22.269 27.1832 22.2759 27.1902 22.2829 27.1971C22.2899 27.2041 22.2969 27.2111 22.3039 27.2181C22.3109 27.2251 22.3178 27.2321 22.3248 27.239C22.3318 27.246 22.3388 27.253 22.3458 27.26C22.3527 27.2669 22.3597 27.2739 22.3667 27.2809C22.3737 27.2879 22.3806 27.2948 22.3876 27.3018C22.3946 27.3088 22.4015 27.3158 22.4085 27.3227C22.4155 27.3297 22.4224 27.3367 22.4294 27.3436C22.4364 27.3506 22.4433 27.3576 22.4503 27.3645C22.4573 27.3715 22.4642 27.3784 22.4712 27.3854C22.4782 27.3924 22.4851 27.3993 22.4921 27.4063C22.499 27.4132 22.506 27.4202 22.5129 27.4271C22.5199 27.4341 22.5268 27.4411 22.5338 27.448C22.5407 27.455 22.5477 27.4619 22.5546 27.4689C22.5616 27.4758 22.5685 27.4827 22.5755 27.4897C22.5824 27.4966 22.5894 27.5036 22.5963 27.5105C22.6033 27.5175 22.6102 27.5244 22.6171 27.5313C22.6241 27.5383 22.631 27.5452 22.6379 27.5522C22.6449 27.5591 22.6518 27.566 22.6587 27.573C22.6657 27.5799 22.6726 27.5868 22.6795 27.5938C22.6865 27.6007 22.6934 27.6076 22.7003 27.6145C22.7072 27.6215 22.7142 27.6284 22.7211 27.6353C22.728 27.6422 22.7349 27.6491 22.7419 27.6561C22.7488 27.663 22.7557 27.6699 22.7626 27.6768C22.7695 27.6837 22.7764 27.6906 22.7833 27.6976C22.7903 27.7045 22.7972 27.7114 22.8041 27.7183C22.811 27.7252 22.8179 27.7321 22.8248 27.739C22.8317 27.7459 22.8386 27.7528 22.8455 27.7597C22.8524 27.7666 22.8593 27.7735 22.8662 27.7804C22.8731 27.7873 22.88 27.7942 22.8869 27.8011C22.8938 27.808 22.9007 27.8149 22.9076 27.8218C22.9145 27.8287 22.9213 27.8356 22.9282 27.8424C22.9351 27.8493 22.942 27.8562 22.9489 27.8631C22.9558 27.87 22.9626 27.8769 22.9695 27.8837C22.9764 27.8906 22.9833 27.8975 22.9902 27.9044C22.997 27.9112 23.0039 27.9181 23.0108 27.925C23.0177 27.9319 23.0245 27.9387 23.0314 27.9456C23.0383 27.9525 23.0451 27.9593 23.052 27.9662C23.0588 27.9731 23.0657 27.9799 23.0726 27.9868C23.0794 27.9936 23.0863 28.0005 23.0931 28.0074C23.1 28.0142 23.1068 28.0211 23.1137 28.0279C23.1205 28.0348 23.1274 28.0416 23.1342 28.0485C23.1411 28.0553 23.1479 28.0621 23.1548 28.069C23.1616 28.0758 23.1685 28.0827 23.1753 28.0895C23.1821 28.0964 23.189 28.1032 23.1958 28.11C23.2026 28.1169 23.2095 28.1237 23.2163 28.1305C23.2231 28.1374 23.23 28.1442 23.2368 28.151C23.2436 28.1578 23.2504 28.1647 23.2573 28.1715C23.2641 28.1783 23.2709 28.1851 23.2777 28.1919C23.2845 28.1987 23.2914 28.2056 23.2982 28.2124C23.305 28.2192 23.3118 28.226 23.3186 28.2328C23.3254 28.2396 23.3322 28.2464 23.339 28.2532C23.3458 28.26 23.3526 28.2668 23.3594 28.2736C23.3662 28.2804 23.373 28.2872 23.3798 28.294C23.3866 28.3008 23.3934 28.3076 23.4002 28.3144C23.407 28.3212 23.4138 28.328 23.4205 28.3348C23.4273 28.3415 23.4341 28.3483 23.4409 28.3551C23.4477 28.3619 23.4545 28.3687 23.4612 28.3754C23.468 28.3822 23.4748 28.389 23.4815 28.3958C23.4883 28.4025 23.4951 28.4093 23.5019 28.4161C23.5086 28.4228 23.5154 28.4296 23.5221 28.4364C23.5289 28.4431 23.5357 28.4499 23.5424 28.4566C23.5492 28.4634 23.5559 28.4701 23.5627 28.4769C23.5694 28.4836 23.5762 28.4904 23.5829 28.4971C23.5897 28.5039 23.5964 28.5106 23.6032 28.5174C23.6099 28.5241 23.6166 28.5309 23.6234 28.5376C23.6301 28.5443 23.6368 28.5511 23.6436 28.5578C23.6503 28.5645 23.657 28.5713 23.6638 28.578C23.6705 28.5847 23.6772 28.5914 23.6839 28.5982C23.6907 28.6049 23.6974 28.6116 23.7041 28.6183C23.7108 28.625 23.7175 28.6317 23.7242 28.6384C23.7309 28.6452 23.7376 28.6519 23.7444 28.6586C23.7511 28.6653 23.7578 28.672 23.7645 28.6787C23.7712 28.6854 23.7779 28.6921 23.7846 28.6988C23.7913 28.7055 23.7979 28.7122 23.8046 28.7188C23.8113 28.7255 23.818 28.7322 23.8247 28.7389C23.8314 28.7456 23.8381 28.7523 23.8447 28.7589C23.8514 28.7656 23.8581 28.7723 23.8648 28.779C23.8714 28.7856 23.8781 28.7923 23.8848 28.799C23.8914 28.8057 23.8981 28.8123 23.9048 28.819C23.9114 28.8256 23.9181 28.8323 23.9247 28.839C23.9314 28.8456 23.938 28.8523 23.9447 28.8589C23.9514 28.8656 23.958 28.8722 23.9646 28.8789C23.9713 28.8855 23.9779 28.8921 23.9846 28.8988C23.9912 28.9054 23.9978 28.9121 24.0045 28.9187C24.0111 28.9253 24.0177 28.932 24.0244 28.9386C24.031 28.9452 24.0376 28.9518 24.0442 28.9585C24.0509 28.9651 24.0575 28.9717 24.0641 28.9783C24.0707 28.9849 24.0773 28.9915 24.0839 28.9981C24.0905 29.0048 24.0971 29.0114 24.1038 29.018C24.1104 29.0246 24.117 29.0312 24.1236 29.0378C24.1302 29.0444 24.1367 29.051 24.1433 29.0576C24.1499 29.0641 24.1565 29.0707 24.1631 29.0773C24.1697 29.0839 24.1763 29.0905 24.1829 29.0971C24.1894 29.1036 24.196 29.1102 24.2026 29.1168C24.2092 29.1234 24.2157 29.1299 24.2223 29.1365C24.2289 29.1431 24.2354 29.1496 24.242 29.1562C24.2485 29.1628 24.2551 29.1693 24.2617 29.1759C24.2682 29.1824 24.2748 29.189 24.2813 29.1955C24.2879 29.2021 24.2944 29.2086 24.3009 29.2152C24.3075 29.2217 24.314 29.2282 24.3206 29.2348C24.3271 29.2413 24.3336 29.2478 24.3402 29.2544C24.3467 29.2609 24.3532 29.2674 24.3597 29.2739C24.3663 29.2805 24.3728 29.287 24.3793 29.2935C24.3858 29.3 24.3923 29.3065 24.3988 29.313C24.4053 29.3196 24.4118 29.3261 24.4183 29.3326C24.4249 29.3391 24.4313 29.3456 24.4378 29.3521C24.4443 29.3586 24.4508 29.365 24.4573 29.3715C24.4638 29.378 24.4703 29.3845 24.4768 29.391C24.4833 29.3975 24.4897 29.404 24.4962 29.4104C24.5027 29.4169 24.5092 29.4234 24.5156 29.4299C24.5221 29.4363 24.5286 29.4428 24.535 29.4493C24.5415 29.4557 24.548 29.4622 24.5544 29.4686C24.5609 29.4751 24.5673 29.4815 24.5738 29.488C24.5802 29.4944 24.5867 29.5009 24.5931 29.5073C24.5995 29.5138 24.606 29.5202 24.6124 29.5266C24.6189 29.5331 24.6253 29.5395 24.6317 29.5459C24.6381 29.5524 24.6446 29.5588 24.651 29.5652C24.6574 29.5716 24.6638 29.578 24.6702 29.5845C24.6767 29.5909 24.6831 29.5973 24.6895 29.6037C24.6959 29.6101 24.7023 29.6165 24.7087 29.6229C24.7151 29.6293 24.7215 29.6357 24.7279 29.6421C24.7343 29.6485 24.7406 29.6549 24.747 29.6612C24.7534 29.6676 24.7598 29.674 24.7662 29.6804C24.7726 29.6868 24.7789 29.6931 24.7853 29.6995C24.7917 29.7059 24.798 29.7122 24.8044 29.7186C24.8108 29.725 24.8171 29.7313 24.8235 29.7377C24.8298 29.744 24.8362 29.7504 24.8425 29.7567C24.8489 29.7631 24.8552 29.7694 24.8616 29.7758C24.8679 29.7821 24.8742 29.7885 24.8806 29.7948C24.8869 29.8011 24.8932 29.8075 24.8996 29.8138C24.9059 29.8201 24.9122 29.8264 24.9185 29.8327C24.9248 29.8391 24.9312 29.8454 24.9375 29.8517C24.9438 29.858 24.9501 29.8643 24.9564 29.8706C24.9627 29.8769 24.969 29.8832 24.9753 29.8895C24.9816 29.8958 24.9879 29.9021 24.9942 29.9084C25.0005 29.9147 25.0067 29.9209 25.013 29.9272C25.0193 29.9335 25.0256 29.9398 25.0318 29.9461C25.0381 29.9523 25.0444 29.9586 25.0506 29.9649C25.0569 29.9711 25.0632 29.9774 25.0694 29.9836C25.0757 29.9899 25.0819 29.9961 25.0882 30.0024C25.0944 30.0086 25.1007 30.0149 25.1069 30.0211C25.1131 30.0274 25.1194 30.0336 25.1256 30.0398C25.1318 30.0461 25.1381 30.0523 25.1443 30.0585C25.1505 30.0647 25.1567 30.071 25.163 30.0772C25.1692 30.0834 25.1754 30.0896 25.1816 30.0958C25.1878 30.102 25.194 30.1082 25.2002 30.1144C25.2064 30.1206 25.2126 30.1268 25.2188 30.133C25.225 30.1392 25.2312 30.1454 25.2374 30.1516C25.2435 30.1578 25.2497 30.1639 25.2559 30.1701C25.2621 30.1763 25.2682 30.1825 25.2744 30.1886C25.2806 30.1948 25.2867 30.2009 25.2929 30.2071L26.7071 28.7929C26.7009 28.7867 26.6948 28.7806 26.6886 28.7744C26.6825 28.7682 26.6763 28.7621 26.6701 28.7559C26.6639 28.7497 26.6578 28.7435 26.6516 28.7374C26.6454 28.7312 26.6392 28.725 26.633 28.7188C26.6268 28.7126 26.6206 28.7064 26.6144 28.7002C26.6082 28.694 26.602 28.6878 26.5958 28.6816C26.5896 28.6754 26.5834 28.6692 26.5772 28.663C26.571 28.6567 26.5647 28.6505 26.5585 28.6443C26.5523 28.6381 26.5461 28.6318 26.5398 28.6256C26.5336 28.6194 26.5274 28.6131 26.5211 28.6069C26.5149 28.6007 26.5086 28.5944 26.5024 28.5882C26.4961 28.5819 26.4899 28.5757 26.4836 28.5694C26.4774 28.5632 26.4711 28.5569 26.4649 28.5506C26.4586 28.5444 26.4523 28.5381 26.4461 28.5318C26.4398 28.5256 26.4335 28.5193 26.4272 28.513C26.4209 28.5067 26.4147 28.5005 26.4084 28.4942C26.4021 28.4879 26.3958 28.4816 26.3895 28.4753C26.3832 28.469 26.3769 28.4627 26.3706 28.4564C26.3643 28.4501 26.358 28.4438 26.3517 28.4375C26.3454 28.4312 26.3391 28.4248 26.3327 28.4185C26.3264 28.4122 26.3201 28.4059 26.3138 28.3996C26.3075 28.3932 26.3011 28.3869 26.2948 28.3806C26.2885 28.3742 26.2821 28.3679 26.2758 28.3616C26.2694 28.3552 26.2631 28.3489 26.2567 28.3425C26.2504 28.3362 26.244 28.3298 26.2377 28.3235C26.2313 28.3171 26.225 28.3108 26.2186 28.3044C26.2122 28.298 26.2059 28.2917 26.1995 28.2853C26.1931 28.2789 26.1868 28.2726 26.1804 28.2662C26.174 28.2598 26.1676 28.2534 26.1612 28.247C26.1549 28.2406 26.1485 28.2343 26.1421 28.2279C26.1357 28.2215 26.1293 28.2151 26.1229 28.2087C26.1165 28.2023 26.1101 28.1959 26.1037 28.1895C26.0973 28.1831 26.0909 28.1767 26.0845 28.1702C26.078 28.1638 26.0716 28.1574 26.0652 28.151C26.0588 28.1446 26.0524 28.1381 26.0459 28.1317C26.0395 28.1253 26.0331 28.1189 26.0266 28.1124C26.0202 28.106 26.0138 28.0995 26.0073 28.0931C26.0009 28.0867 25.9944 28.0802 25.988 28.0738C25.9815 28.0673 25.9751 28.0609 25.9686 28.0544C25.9622 28.048 25.9557 28.0415 25.9493 28.035C25.9428 28.0286 25.9363 28.0221 25.9299 28.0156C25.9234 28.0092 25.9169 28.0027 25.9104 27.9962C25.904 27.9897 25.8975 27.9833 25.891 27.9768C25.8845 27.9703 25.878 27.9638 25.8715 27.9573C25.865 27.9508 25.8586 27.9443 25.8521 27.9378C25.8456 27.9313 25.8391 27.9249 25.8326 27.9183C25.8261 27.9118 25.8196 27.9053 25.813 27.8988C25.8065 27.8923 25.8 27.8858 25.7935 27.8793C25.787 27.8728 25.7805 27.8663 25.7739 27.8597C25.7674 27.8532 25.7609 27.8467 25.7544 27.8402C25.7478 27.8336 25.7413 27.8271 25.7348 27.8206C25.7282 27.814 25.7217 27.8075 25.7152 27.8009C25.7086 27.7944 25.7021 27.7879 25.6955 27.7813C25.689 27.7748 25.6824 27.7682 25.6759 27.7617C25.6693 27.7551 25.6628 27.7485 25.6562 27.742C25.6496 27.7354 25.6431 27.7289 25.6365 27.7223C25.6299 27.7157 25.6234 27.7092 25.6168 27.7026C25.6102 27.696 25.6036 27.6894 25.5971 27.6829C25.5905 27.6763 25.5839 27.6697 25.5773 27.6631C25.5707 27.6565 25.5641 27.6499 25.5576 27.6433C25.551 27.6367 25.5444 27.6302 25.5378 27.6236C25.5312 27.617 25.5246 27.6104 25.518 27.6038C25.5114 27.5971 25.5048 27.5905 25.4981 27.5839C25.4915 27.5773 25.4849 27.5707 25.4783 27.5641C25.4717 27.5575 25.4651 27.5509 25.4585 27.5442C25.4518 27.5376 25.4452 27.531 25.4386 27.5244C25.432 27.5177 25.4253 27.5111 25.4187 27.5045C25.4121 27.4978 25.4054 27.4912 25.3988 27.4846C25.3921 27.4779 25.3855 27.4713 25.3789 27.4646C25.3722 27.458 25.3656 27.4514 25.3589 27.4447C25.3523 27.438 25.3456 27.4314 25.339 27.4247C25.3323 27.4181 25.3256 27.4114 25.319 27.4048C25.3123 27.3981 25.3057 27.3914 25.299 27.3848C25.2923 27.3781 25.2856 27.3714 25.279 27.3648C25.2723 27.3581 25.2656 27.3514 25.2589 27.3447C25.2523 27.3381 25.2456 27.3314 25.2389 27.3247C25.2322 27.318 25.2255 27.3113 25.2188 27.3046C25.2122 27.2979 25.2055 27.2913 25.1988 27.2846C25.1921 27.2779 25.1854 27.2712 25.1787 27.2645C25.172 27.2578 25.1653 27.2511 25.1586 27.2444C25.1519 27.2376 25.1452 27.2309 25.1384 27.2242C25.1317 27.2175 25.125 27.2108 25.1183 27.2041C25.1116 27.1974 25.1049 27.1907 25.0982 27.1839C25.0914 27.1772 25.0847 27.1705 25.078 27.1638C25.0713 27.157 25.0645 27.1503 25.0578 27.1436C25.0511 27.1368 25.0443 27.1301 25.0376 27.1234C25.0309 27.1166 25.0241 27.1099 25.0174 27.1032C25.0106 27.0964 25.0039 27.0897 24.9971 27.0829C24.9904 27.0762 24.9836 27.0694 24.9769 27.0627C24.9701 27.0559 24.9634 27.0492 24.9566 27.0424C24.9499 27.0357 24.9431 27.0289 24.9364 27.0221C24.9296 27.0154 24.9228 27.0086 24.9161 27.0019C24.9093 26.9951 24.9025 26.9883 24.8958 26.9815C24.889 26.9748 24.8822 26.968 24.8754 26.9612C24.8687 26.9545 24.8619 26.9477 24.8551 26.9409C24.8483 26.9341 24.8415 26.9273 24.8348 26.9205C24.828 26.9138 24.8212 26.907 24.8144 26.9002C24.8076 26.8934 24.8008 26.8866 24.794 26.8798C24.7872 26.873 24.7804 26.8662 24.7736 26.8594C24.7668 26.8526 24.76 26.8458 24.7532 26.839C24.7464 26.8322 24.7396 26.8254 24.7328 26.8186C24.726 26.8118 24.7192 26.805 24.7124 26.7982C24.7056 26.7914 24.6987 26.7845 24.6919 26.7777C24.6851 26.7709 24.6783 26.7641 24.6715 26.7573C24.6647 26.7504 24.6578 26.7436 24.651 26.7368C24.6442 26.73 24.6374 26.7231 24.6305 26.7163C24.6237 26.7095 24.6169 26.7026 24.61 26.6958C24.6032 26.689 24.5964 26.6821 24.5895 26.6753C24.5827 26.6685 24.5758 26.6616 24.569 26.6548C24.5621 26.6479 24.5553 26.6411 24.5485 26.6342C24.5416 26.6274 24.5348 26.6205 24.5279 26.6137C24.5211 26.6068 24.5142 26.6 24.5074 26.5931C24.5005 26.5863 24.4936 26.5794 24.4868 26.5726C24.4799 26.5657 24.4731 26.5588 24.4662 26.552C24.4593 26.5451 24.4525 26.5383 24.4456 26.5314C24.4387 26.5245 24.4319 26.5177 24.425 26.5108C24.4181 26.5039 24.4112 26.497 24.4044 26.4902C24.3975 26.4833 24.3906 26.4764 24.3837 26.4695C24.3769 26.4626 24.37 26.4558 24.3631 26.4489C24.3562 26.442 24.3493 26.4351 24.3424 26.4282C24.3356 26.4213 24.3287 26.4145 24.3218 26.4076C24.3149 26.4007 24.308 26.3938 24.3011 26.3869C24.2942 26.38 24.2873 26.3731 24.2804 26.3662C24.2735 26.3593 24.2666 26.3524 24.2597 26.3455C24.2528 26.3386 24.2459 26.3317 24.239 26.3248C24.2321 26.3179 24.2252 26.311 24.2183 26.3041C24.2114 26.2972 24.2045 26.2903 24.1976 26.2833C24.1906 26.2764 24.1837 26.2695 24.1768 26.2626C24.1699 26.2557 24.163 26.2488 24.1561 26.2419C24.1491 26.2349 24.1422 26.228 24.1353 26.2211C24.1284 26.2142 24.1215 26.2072 24.1145 26.2003C24.1076 26.1934 24.1007 26.1865 24.0938 26.1795C24.0868 26.1726 24.0799 26.1657 24.073 26.1587C24.066 26.1518 24.0591 26.1449 24.0522 26.1379C24.0452 26.131 24.0383 26.1241 24.0313 26.1171C24.0244 26.1102 24.0175 26.1033 24.0105 26.0963C24.0036 26.0894 23.9966 26.0824 23.9897 26.0755C23.9827 26.0685 23.9758 26.0616 23.9689 26.0546C23.9619 26.0477 23.955 26.0407 23.948 26.0338C23.9411 26.0268 23.9341 26.0199 23.9271 26.0129C23.9202 26.006 23.9132 25.999 23.9063 25.9921C23.8993 25.9851 23.8924 25.9782 23.8854 25.9712C23.8784 25.9642 23.8715 25.9573 23.8645 25.9503C23.8576 25.9433 23.8506 25.9364 23.8436 25.9294C23.8367 25.9224 23.8297 25.9155 23.8227 25.9085C23.8158 25.9015 23.8088 25.8946 23.8018 25.8876C23.7948 25.8806 23.7879 25.8737 23.7809 25.8667C23.7739 25.8597 23.7669 25.8527 23.76 25.8458C23.753 25.8388 23.746 25.8318 23.739 25.8248C23.7321 25.8178 23.7251 25.8109 23.7181 25.8039C23.7111 25.7969 23.7041 25.7899 23.6971 25.7829C23.6902 25.7759 23.6832 25.769 23.6762 25.762C23.6692 25.755 23.6622 25.748 23.6552 25.741C23.6482 25.734 23.6412 25.727 23.6342 25.72C23.6273 25.713 23.6203 25.706 23.6133 25.6991C23.6063 25.6921 23.5993 25.6851 23.5923 25.6781C23.5853 25.6711 23.5783 25.6641 23.5713 25.6571C23.5643 25.6501 23.5573 25.6431 23.5503 25.6361C23.5433 25.6291 23.5363 25.6221 23.5293 25.6151C23.5223 25.6081 23.5153 25.6011 23.5083 25.594C23.5013 25.587 23.4942 25.58 23.4872 25.573C23.4802 25.566 23.4732 25.559 23.4662 25.552C23.4592 25.545 23.4522 25.538 23.4452 25.531C23.4382 25.5239 23.4311 25.5169 23.4241 25.5099C23.4171 25.5029 23.4101 25.4959 23.4031 25.4889C23.3961 25.4819 23.389 25.4748 23.382 25.4678C23.375 25.4608 23.368 25.4538 23.361 25.4468C23.3539 25.4397 23.3469 25.4327 23.3399 25.4257C23.3329 25.4187 23.3259 25.4116 23.3188 25.4046C23.3118 25.3976 23.3048 25.3906 23.2978 25.3835C23.2907 25.3765 23.2837 25.3695 23.2767 25.3625C23.2696 25.3554 23.2626 25.3484 23.2556 25.3414C23.2486 25.3343 23.2415 25.3273 23.2345 25.3203C23.2275 25.3132 23.2204 25.3062 23.2134 25.2992C23.2064 25.2921 23.1993 25.2851 23.1923 25.2781C23.1853 25.271 23.1782 25.264 23.1712 25.257C23.1641 25.2499 23.1571 25.2429 23.1501 25.2359C23.143 25.2288 23.136 25.2218 23.1289 25.2147C23.1219 25.2077 23.1149 25.2007 23.1078 25.1936C23.1008 25.1866 23.0937 25.1795 23.0867 25.1725C23.0797 25.1654 23.0726 25.1584 23.0656 25.1514C23.0585 25.1443 23.0515 25.1373 23.0444 25.1302C23.0374 25.1232 23.0303 25.1161 23.0233 25.1091C23.0162 25.102 23.0092 25.095 23.0021 25.0879C22.9951 25.0809 22.988 25.0738 22.981 25.0668C22.9739 25.0597 22.9669 25.0527 22.9598 25.0456C22.9528 25.0386 22.9457 25.0315 22.9387 25.0245C22.9316 25.0174 22.9246 25.0104 22.9175 25.0033C22.9105 24.9963 22.9034 24.9892 22.8964 24.9822C22.8893 24.9751 22.8823 24.968 22.8752 24.961C22.8681 24.9539 22.8611 24.9469 22.854 24.9398C22.847 24.9328 22.8399 24.9257 22.8329 24.9186C22.8258 24.9116 22.8187 24.9045 22.8117 24.8975C22.8046 24.8904 22.7976 24.8834 22.7905 24.8763C22.7835 24.8692 22.7764 24.8622 22.7693 24.8551C22.7623 24.8481 22.7552 24.841 22.7481 24.8339C22.7411 24.8269 22.734 24.8198 22.727 24.8127C22.7199 24.8057 22.7128 24.7986 22.7058 24.7916C22.6987 24.7845 22.6916 24.7774 22.6846 24.7704C22.6775 24.7633 22.6705 24.7562 22.6634 24.7492C22.6563 24.7421 22.6493 24.735 22.6422 24.728C22.6351 24.7209 22.6281 24.7139 22.621 24.7068C22.6139 24.6997 22.6069 24.6927 22.5998 24.6856C22.5927 24.6785 22.5857 24.6715 22.5786 24.6644C22.5715 24.6573 22.5645 24.6503 22.5574 24.6432C22.5503 24.6361 22.5433 24.629 22.5362 24.622C22.5291 24.6149 22.5221 24.6078 22.515 24.6008C22.5079 24.5937 22.5009 24.5866 22.4938 24.5796C22.4867 24.5725 22.4796 24.5654 22.4726 24.5584C22.4655 24.5513 22.4584 24.5442 22.4514 24.5372C22.4443 24.5301 22.4372 24.523 22.4302 24.5159C22.4231 24.5089 22.416 24.5018 22.4089 24.4947C22.4019 24.4877 22.3948 24.4806 22.3877 24.4735C22.3807 24.4665 22.3736 24.4594 22.3665 24.4523C22.3595 24.4452 22.3524 24.4382 22.3453 24.4311C22.3382 24.424 22.3312 24.417 22.3241 24.4099C22.317 24.4028 22.31 24.3958 22.3029 24.3887C22.2958 24.3816 22.2888 24.3745 22.2817 24.3675C22.2746 24.3604 22.2675 24.3533 22.2605 24.3463C22.2534 24.3392 22.2463 24.3321 22.2393 24.325C22.2322 24.318 22.2251 24.3109 22.218 24.3038C22.211 24.2968 22.2039 24.2897 22.1968 24.2826C22.1898 24.2755 22.1827 24.2685 22.1756 24.2614C22.1686 24.2543 22.1615 24.2473 22.1544 24.2402C22.1473 24.2331 22.1403 24.2261 22.1332 24.219C22.1261 24.2119 22.1191 24.2048 22.112 24.1978C22.1049 24.1907 22.0979 24.1836 22.0908 24.1766C22.0837 24.1695 22.0766 24.1624 22.0696 24.1554C22.0625 24.1483 22.0554 24.1412 22.0484 24.1342C22.0413 24.1271 22.0342 24.12 22.0272 24.113C22.0201 24.1059 22.013 24.0988 22.006 24.0918C21.9989 24.0847 21.9918 24.0776 21.9848 24.0706C21.9777 24.0635 21.9706 24.0564 21.9636 24.0494C21.9565 24.0423 21.9494 24.0352 21.9424 24.0282C21.9353 24.0211 21.9282 24.014 21.9212 24.007C21.9141 23.9999 21.907 23.9928 21.9 23.9858C21.8929 23.9787 21.8858 23.9716 21.8788 23.9646C21.8717 23.9575 21.8647 23.9504 21.8576 23.9434C21.8505 23.9363 21.8435 23.9293 21.8364 23.9222C21.8293 23.9151 21.8223 23.9081 21.8152 23.901C21.8082 23.8939 21.8011 23.8869 21.794 23.8798C21.787 23.8728 21.7799 23.8657 21.7729 23.8586C21.7658 23.8516 21.7587 23.8445 21.7517 23.8375C21.7446 23.8304 21.7376 23.8233 21.7305 23.8163C21.7234 23.8092 21.7164 23.8022 21.7093 23.7951C21.7023 23.7881 21.6952 23.781 21.6882 23.774C21.6811 23.7669 21.6741 23.7598 21.667 23.7528C21.6599 23.7457 21.6529 23.7387 21.6458 23.7316C21.6388 23.7246 21.6317 23.7175 21.6247 23.7105C21.6176 23.7034 21.6106 23.6964 21.6035 23.6893C21.5965 23.6823 21.5894 23.6752 21.5824 23.6682C21.5753 23.6611 21.5683 23.6541 21.5612 23.647C21.5542 23.64 21.5471 23.6329 21.5401 23.6259C21.533 23.6188 21.526 23.6118 21.5189 23.6047C21.5119 23.5977 21.5049 23.5906 21.4978 23.5836C21.4908 23.5766 21.4837 23.5695 21.4767 23.5625C21.4696 23.5554 21.4626 23.5484 21.4556 23.5413C21.4485 23.5343 21.4415 23.5273 21.4344 23.5202C21.4274 23.5132 21.4204 23.5061 21.4133 23.4991C21.4063 23.4921 21.3992 23.485 21.3922 23.478C21.3852 23.471 21.3781 23.4639 21.3711 23.4569C21.3641 23.4498 21.357 23.4428 21.35 23.4358C21.343 23.4287 21.3359 23.4217 21.3289 23.4147C21.3219 23.4077 21.3148 23.4006 21.3078 23.3936C21.3008 23.3866 21.2937 23.3795 21.2867 23.3725C21.2797 23.3655 21.2727 23.3584 21.2656 23.3514C21.2586 23.3444 21.2516 23.3374 21.2446 23.3303C21.2375 23.3233 21.2305 23.3163 21.2235 23.3093C21.2165 23.3023 21.2094 23.2952 21.2024 23.2882C21.1954 23.2812 21.1884 23.2742 21.1814 23.2672C21.1743 23.2601 21.1673 23.2531 21.1603 23.2461C21.1533 23.2391 21.1463 23.2321 21.1393 23.2251C21.1323 23.218 21.1252 23.211 21.1182 23.204C21.1112 23.197 21.1042 23.19 21.0972 23.183C21.0902 23.176 21.0832 23.169 21.0762 23.162C21.0692 23.1549 21.0622 23.1479 21.0551 23.1409C21.0481 23.1339 21.0411 23.1269 21.0341 23.1199C21.0271 23.1129 21.0201 23.1059 21.0131 23.0989C21.0061 23.0919 20.9991 23.0849 20.9921 23.0779C20.9851 23.0709 20.9781 23.0639 20.9711 23.0569C20.9641 23.0499 20.9571 23.0429 20.9501 23.0359C20.9432 23.0289 20.9362 23.0219 20.9292 23.015C20.9222 23.008 20.9152 23.001 20.9082 22.994C20.9012 22.987 20.8942 22.98 20.8872 22.973C20.8802 22.966 20.8733 22.959 20.8663 22.9521C20.8593 22.9451 20.8523 22.9381 20.8453 22.9311C20.8383 22.9241 20.8314 22.9172 20.8244 22.9102C20.8174 22.9032 20.8104 22.8962 20.8035 22.8892C20.7965 22.8823 20.7895 22.8753 20.7825 22.8683C20.7756 22.8613 20.7686 22.8544 20.7616 22.8474C20.7546 22.8404 20.7477 22.8335 20.7407 22.8265C20.7337 22.8195 20.7268 22.8126 20.7198 22.8056C20.7128 22.7986 20.7059 22.7917 20.6989 22.7847C20.6919 22.7777 20.685 22.7708 20.678 22.7638C20.6711 22.7569 20.6641 22.7499 20.6572 22.7429C20.6502 22.736 20.6432 22.729 20.6363 22.7221C20.6293 22.7151 20.6224 22.7082 20.6154 22.7012C20.6085 22.6943 20.6015 22.6873 20.5946 22.6804C20.5876 22.6734 20.5807 22.6665 20.5738 22.6595C20.5668 22.6526 20.5599 22.6457 20.5529 22.6387C20.546 22.6318 20.539 22.6248 20.5321 22.6179C20.5252 22.611 20.5182 22.604 20.5113 22.5971C20.5044 22.5901 20.4974 22.5832 20.4905 22.5763C20.4836 22.5694 20.4766 22.5624 20.4697 22.5555C20.4628 22.5486 20.4559 22.5416 20.4489 22.5347C20.442 22.5278 20.4351 22.5209 20.4282 22.5139C20.4212 22.507 20.4143 22.5001 20.4074 22.4932C20.4005 22.4863 20.3936 22.4794 20.3867 22.4724C20.3797 22.4655 20.3728 22.4586 20.3659 22.4517C20.359 22.4448 20.3521 22.4379 20.3452 22.431C20.3383 22.4241 20.3314 22.4172 20.3245 22.4103C20.3176 22.4033 20.3107 22.3964 20.3038 22.3895C20.2969 22.3826 20.29 22.3757 20.2831 22.3688C20.2762 22.362 20.2693 22.3551 20.2624 22.3482C20.2555 22.3413 20.2486 22.3344 20.2417 22.3275C20.2348 22.3206 20.2279 22.3137 20.221 22.3068C20.2142 22.2999 20.2073 22.2931 20.2004 22.2862C20.1935 22.2793 20.1866 22.2724 20.1797 22.2655C20.1729 22.2587 20.166 22.2518 20.1591 22.2449C20.1522 22.238 20.1454 22.2312 20.1385 22.2243C20.1316 22.2174 20.1248 22.2106 20.1179 22.2037C20.111 22.1968 20.1042 22.19 20.0973 22.1831C20.0904 22.1762 20.0836 22.1694 20.0767 22.1625C20.0699 22.1557 20.063 22.1488 20.0562 22.1419C20.0493 22.1351 20.0424 22.1282 20.0356 22.1214C20.0287 22.1145 20.0219 22.1077 20.0151 22.1008C20.0082 22.094 20.0014 22.0872 19.9945 22.0803C19.9877 22.0735 19.9808 22.0666 19.974 22.0598C19.9672 22.053 19.9603 22.0461 19.9535 22.0393C19.9467 22.0324 19.9398 22.0256 19.933 22.0188C19.9262 22.012 19.9193 22.0051 19.9125 21.9983C19.9057 21.9915 19.8989 21.9847 19.8921 21.9778C19.8852 21.971 19.8784 21.9642 19.8716 21.9574C19.8648 21.9506 19.858 21.9438 19.8512 21.9369C19.8443 21.9301 19.8375 21.9233 19.8307 21.9165C19.8239 21.9097 19.8171 21.9029 19.8103 21.8961C19.8035 21.8893 19.7967 21.8825 19.7899 21.8757C19.7831 21.8689 19.7763 21.8621 19.7695 21.8553C19.7627 21.8485 19.7559 21.8417 19.7492 21.8349C19.7424 21.8282 19.7356 21.8214 19.7288 21.8146C19.722 21.8078 19.7152 21.801 19.7085 21.7942C19.7017 21.7875 19.6949 21.7807 19.6881 21.7739C19.6813 21.7671 19.6746 21.7604 19.6678 21.7536C19.661 21.7468 19.6543 21.7401 19.6475 21.7333C19.6407 21.7265 19.634 21.7198 19.6272 21.713C19.6205 21.7062 19.6137 21.6995 19.6069 21.6927C19.6002 21.686 19.5934 21.6792 19.5867 21.6725C19.5799 21.6657 19.5732 21.659 19.5664 21.6522C19.5597 21.6455 19.5529 21.6387 19.5462 21.632C19.5395 21.6253 19.5327 21.6185 19.526 21.6118C19.5193 21.605 19.5125 21.5983 19.5058 21.5916C19.4991 21.5849 19.4923 21.5781 19.4856 21.5714C19.4789 21.5647 19.4722 21.558 19.4654 21.5512C19.4587 21.5445 19.452 21.5378 19.4453 21.5311C19.4386 21.5244 19.4319 21.5177 19.4252 21.5109C19.4184 21.5042 19.4117 21.4975 19.405 21.4908C19.3983 21.4841 19.3916 21.4774 19.3849 21.4707C19.3782 21.464 19.3715 21.4573 19.3648 21.4506C19.3582 21.4439 19.3515 21.4372 19.3448 21.4306C19.3381 21.4239 19.3314 21.4172 19.3247 21.4105C19.318 21.4038 19.3114 21.3971 19.3047 21.3905C19.298 21.3838 19.2913 21.3771 19.2847 21.3704C19.278 21.3638 19.2713 21.3571 19.2647 21.3504C19.258 21.3438 19.2513 21.3371 19.2447 21.3304C19.238 21.3238 19.2313 21.3171 19.2247 21.3105C19.218 21.3038 19.2114 21.2972 19.2047 21.2905C19.1981 21.2839 19.1914 21.2772 19.1848 21.2706C19.1782 21.2639 19.1715 21.2573 19.1649 21.2507C19.1582 21.244 19.1516 21.2374 19.145 21.2308C19.1383 21.2241 19.1317 21.2175 19.1251 21.2109C19.1185 21.2042 19.1118 21.1976 19.1052 21.191C19.0986 21.1844 19.092 21.1778 19.0854 21.1711C19.0787 21.1645 19.0721 21.1579 19.0655 21.1513C19.0589 21.1447 19.0523 21.1381 19.0457 21.1315C19.0391 21.1249 19.0325 21.1183 19.0259 21.1117C19.0193 21.1051 19.0127 21.0985 19.0061 21.0919C18.9995 21.0853 18.993 21.0787 18.9864 21.0722C18.9798 21.0656 18.9732 21.059 18.9666 21.0524C18.9601 21.0458 18.9535 21.0393 18.9469 21.0327C18.9403 21.0261 18.9338 21.0196 18.9272 21.013C18.9206 21.0064 18.9141 20.9999 18.9075 20.9933C18.901 20.9867 18.8944 20.9802 18.8878 20.9736C18.8813 20.9671 18.8747 20.9605 18.8682 20.954C18.8616 20.9474 18.8551 20.9409 18.8486 20.9343C18.842 20.9278 18.8355 20.9213 18.829 20.9147C18.8224 20.9082 18.8159 20.9017 18.8094 20.8951C18.8028 20.8886 18.7963 20.8821 18.7898 20.8756C18.7833 20.8691 18.7767 20.8625 18.7702 20.856C18.7637 20.8495 18.7572 20.843 18.7507 20.8365C18.7442 20.83 18.7377 20.8235 18.7312 20.817C18.7247 20.8105 18.7182 20.804 18.7117 20.7975C18.7052 20.791 18.6987 20.7845 18.6922 20.778C18.6857 20.7715 18.6792 20.765 18.6728 20.7585C18.6663 20.7521 18.6598 20.7456 18.6533 20.7391C18.6469 20.7326 18.6404 20.7262 18.6339 20.7197C18.6274 20.7132 18.621 20.7068 18.6145 20.7003C18.6081 20.6938 18.6016 20.6874 18.5951 20.6809C18.5887 20.6745 18.5822 20.668 18.5758 20.6616C18.5694 20.6551 18.5629 20.6487 18.5565 20.6423C18.55 20.6358 18.5436 20.6294 18.5372 20.6229C18.5307 20.6165 18.5243 20.6101 18.5179 20.6037C18.5114 20.5972 18.505 20.5908 18.4986 20.5844C18.4922 20.578 18.4858 20.5716 18.4794 20.5651C18.4729 20.5587 18.4665 20.5523 18.4601 20.5459C18.4537 20.5395 18.4473 20.5331 18.4409 20.5267C18.4345 20.5203 18.4281 20.5139 18.4217 20.5075C18.4153 20.5011 18.409 20.4948 18.4026 20.4884C18.3962 20.482 18.3898 20.4756 18.3834 20.4692C18.3771 20.4629 18.3707 20.4565 18.3643 20.4501C18.358 20.4437 18.3516 20.4374 18.3452 20.431C18.3389 20.4247 18.3325 20.4183 18.3262 20.4119C18.3198 20.4056 18.3135 20.3992 18.3071 20.3929C18.3008 20.3865 18.2944 20.3802 18.2881 20.3739C18.2817 20.3675 18.2754 20.3612 18.2691 20.3549C18.2627 20.3485 18.2564 20.3422 18.2501 20.3359C18.2438 20.3296 18.2374 20.3232 18.2311 20.3169C18.1639 20.2497 18.2226 20.3084 18.1555 20.2413C18.1492 20.235 18.143 20.2287 18.1367 20.2225C18.1304 20.2162 18.1241 20.2099 18.1179 20.2036C18.1011 20.1869 18.097 20.1828 18.0803 20.1661C18.0579 20.1437 17.9528 20.0385 17.9309 20.0167C17.865 19.9508 17.8486 19.9344 17.7832 19.869C17.7506 19.8364 17.7424 19.8282 17.7099 19.7957C17.6614 19.7471 17.6855 19.7713 17.6371 19.7229C17.5726 19.6584 17.629 19.7148 17.5647 19.6505C17.5326 19.6184 17.5246 19.6104 17.4927 19.5785C17.4867 19.5725 17.4807 19.5665 17.4748 19.5605C17.4688 19.5546 17.4628 19.5486 17.4569 19.5426C17.4509 19.5367 17.4449 19.5307 17.439 19.5248C17.433 19.5188 17.4271 19.5129 17.4211 19.5069C17.4152 19.501 17.4092 19.495 17.4033 19.4891C17.3974 19.4832 17.3914 19.4772 17.3855 19.4713C17.3796 19.4654 17.3737 19.4595 17.3678 19.4535C17.3618 19.4476 17.3559 19.4417 17.35 19.4358C17.3441 19.4299 17.3382 19.424 17.3323 19.4181C17.3264 19.4122 17.3205 19.4063 17.3146 19.4004C17.3088 19.3945 17.3029 19.3887 17.297 19.3828C17.2911 19.3769 17.2852 19.371 17.2794 19.3652C17.2735 19.3593 17.2676 19.3534 17.2618 19.3476C17.2559 19.3417 17.2501 19.3359 17.2442 19.33C17.2384 19.3242 17.2325 19.3183 17.2267 19.3125C17.2209 19.3066 17.215 19.3008 17.2092 19.295C17.2034 19.2891 17.1975 19.2833 17.1917 19.2775C17.1859 19.2717 17.1801 19.2659 17.1743 19.2601C17.1685 19.2542 17.1627 19.2484 17.1569 19.2426C17.1511 19.2368 17.1453 19.231 17.1395 19.2253C17.1337 19.2195 17.1279 19.2137 17.1221 19.2079C17.1163 19.2021 17.1106 19.1963 17.1048 19.1906C17.099 19.1848 17.0933 19.179 17.0875 19.1733C17.0817 19.1675 17.076 19.1618 17.0702 19.156C17.0645 19.1503 17.0587 19.1445 17.053 19.1388C17.0473 19.133 17.0415 19.1273 17.0358 19.1216C17.0301 19.1158 17.0243 19.1101 17.0186 19.1044C17.0129 19.0987 17.0072 19.093 17.0015 19.0873C16.9958 19.0815 16.9901 19.0758 16.9844 19.0701C16.9787 19.0644 16.973 19.0587 16.9673 19.0531C16.9616 19.0474 16.9559 19.0417 16.9502 19.036C16.9445 19.0303 16.9389 19.0247 16.9332 19.019C16.9275 19.0133 16.9219 19.0077 16.9162 19.002C16.9106 18.9963 16.9049 18.9907 16.8993 18.985C16.8936 18.9794 16.888 18.9738 16.8823 18.9681C16.8767 18.9625 16.8711 18.9568 16.8654 18.9512C16.8598 18.9456 16.8542 18.94 16.8486 18.9344C16.843 18.9287 16.8373 18.9231 16.8317 18.9175C16.8261 18.9119 16.8205 18.9063 16.8149 18.9007C16.8093 18.8951 16.8038 18.8895 16.7982 18.884C16.7926 18.8784 16.787 18.8728 16.7814 18.8672C16.7759 18.8616 16.7703 18.8561 16.7647 18.8505C16.7592 18.845 16.7536 18.8394 16.7481 18.8338C16.7425 18.8283 16.737 18.8227 16.7314 18.8172C16.7259 18.8117 16.7203 18.8061 16.7148 18.8006C16.7093 18.7951 16.7038 18.7895 16.6982 18.784C16.6927 18.7785 16.6872 18.773 16.6817 18.7675C16.6762 18.762 16.6707 18.7565 16.6652 18.751C16.6597 18.7455 16.6542 18.74 16.6487 18.7345C16.6432 18.729 16.6377 18.7235 16.6323 18.7181C16.6268 18.7126 16.6213 18.7071 16.6159 18.7016C16.6104 18.6962 16.6049 18.6907 16.5995 18.6853C16.594 18.6798 16.5886 18.6744 16.5831 18.6689C16.5777 18.6635 16.5723 18.6581 16.5668 18.6526C16.5614 18.6472 16.556 18.6418 16.5506 18.6363C16.5451 18.6309 16.5397 18.6255 16.5343 18.6201L15.1201 20.0343ZM5 36C3.34315 36 2 34.6569 2 33H0C0 35.7614 2.23858 38 5 38V36ZM10.8787 20.0355C12.0506 18.8636 13.9489 18.8631 15.1201 20.0343L16.5343 18.6201C14.5813 16.6671 11.4167 16.6691 9.46446 18.6213L10.8787 20.0355ZM29 38C31.7614 38 34 35.7614 34 33H32C32 34.6569 30.6569 36 29 36V38ZM5 4C2.23858 4 0 6.23858 0 9H2C2 7.34315 3.34315 6 5 6V4Z" fill="black"/>
<path d="M33 25.5L29.8284 22.3284C28.2663 20.7663 25.7337 20.7663 24.1716 22.3284L21.5 25" stroke="black" stroke-width="2" stroke-linecap="round"/>
<circle cx="21" cy="13" r="1" fill="black"/>
</svg>
